<mxfile host="app.diagrams.net" modified="2022-02-09T08:02:37.126Z" agent="5.0 (Windows NT 10.0; Win64; x64) AppleWebKit/537.36 (KHTML, like Gecko) Chrome/98.0.4758.82 Safari/537.36" etag="PNn1e7hTzsoYtuOHy8sB" version="15.5.9" type="github">
  <diagram id="C5RBs43oDa-KdzZeNtuy" name="Page-1">
    <mxGraphModel dx="981" dy="492" grid="1" gridSize="10" guides="1" tooltips="1" connect="1" arrows="1" fold="1" page="1" pageScale="1" pageWidth="827" pageHeight="1169" math="0" shadow="0">
      <root>
        <mxCell id="WIyWlLk6GJQsqaUBKTNV-0" />
        <mxCell id="WIyWlLk6GJQsqaUBKTNV-1" parent="WIyWlLk6GJQsqaUBKTNV-0" />
        <mxCell id="yB8xeawE9JWbTuLQCafE-2" value="" style="edgeStyle=orthogonalEdgeStyle;rounded=0;orthogonalLoop=1;jettySize=auto;html=1;exitX=0.5;exitY=1;exitDx=0;exitDy=0;" edge="1" parent="WIyWlLk6GJQsqaUBKTNV-1" source="yB8xeawE9JWbTuLQCafE-0" target="yB8xeawE9JWbTuLQCafE-1">
          <mxGeometry relative="1" as="geometry" />
        </mxCell>
        <mxCell id="yB8xeawE9JWbTuLQCafE-0" value="사용자" style="rounded=1;whiteSpace=wrap;html=1;" vertex="1" parent="WIyWlLk6GJQsqaUBKTNV-1">
          <mxGeometry x="190" y="80" width="120" height="40" as="geometry" />
        </mxCell>
        <mxCell id="yB8xeawE9JWbTuLQCafE-4" value="" style="edgeStyle=orthogonalEdgeStyle;rounded=0;orthogonalLoop=1;jettySize=auto;html=1;" edge="1" parent="WIyWlLk6GJQsqaUBKTNV-1" source="yB8xeawE9JWbTuLQCafE-1" target="yB8xeawE9JWbTuLQCafE-3">
          <mxGeometry relative="1" as="geometry" />
        </mxCell>
        <mxCell id="yB8xeawE9JWbTuLQCafE-1" value="검색 / 위치기반" style="rhombus;whiteSpace=wrap;html=1;" vertex="1" parent="WIyWlLk6GJQsqaUBKTNV-1">
          <mxGeometry x="330" y="180" width="140" height="50" as="geometry" />
        </mxCell>
        <mxCell id="yB8xeawE9JWbTuLQCafE-6" value="" style="edgeStyle=orthogonalEdgeStyle;rounded=0;orthogonalLoop=1;jettySize=auto;html=1;" edge="1" parent="WIyWlLk6GJQsqaUBKTNV-1" source="yB8xeawE9JWbTuLQCafE-3" target="yB8xeawE9JWbTuLQCafE-5">
          <mxGeometry relative="1" as="geometry" />
        </mxCell>
        <mxCell id="yB8xeawE9JWbTuLQCafE-3" value="백반집 선택&amp;nbsp;" style="whiteSpace=wrap;html=1;" vertex="1" parent="WIyWlLk6GJQsqaUBKTNV-1">
          <mxGeometry x="340" y="280" width="120" height="50" as="geometry" />
        </mxCell>
        <mxCell id="yB8xeawE9JWbTuLQCafE-5" value="오늘의 메뉴" style="ellipse;whiteSpace=wrap;html=1;" vertex="1" parent="WIyWlLk6GJQsqaUBKTNV-1">
          <mxGeometry x="340" y="370" width="120" height="60" as="geometry" />
        </mxCell>
        <mxCell id="yB8xeawE9JWbTuLQCafE-9" style="edgeStyle=orthogonalEdgeStyle;rounded=0;orthogonalLoop=1;jettySize=auto;html=1;exitX=0.5;exitY=1;exitDx=0;exitDy=0;entryX=0.5;entryY=0;entryDx=0;entryDy=0;" edge="1" parent="WIyWlLk6GJQsqaUBKTNV-1" source="yB8xeawE9JWbTuLQCafE-7" target="yB8xeawE9JWbTuLQCafE-1">
          <mxGeometry relative="1" as="geometry">
            <mxPoint x="530.0344827586207" y="170.01436781609198" as="targetPoint" />
          </mxGeometry>
        </mxCell>
        <mxCell id="yB8xeawE9JWbTuLQCafE-7" value="사장님 / 방문자" style="rounded=1;whiteSpace=wrap;html=1;" vertex="1" parent="WIyWlLk6GJQsqaUBKTNV-1">
          <mxGeometry x="490" y="80" width="120" height="40" as="geometry" />
        </mxCell>
      </root>
    </mxGraphModel>
  </diagram>
</mxfile>
